<svg version="1.2" xmlns="http://www.w3.org/2000/svg" viewBox="0 0 180 32" width="180" height="32">
	<title>MAKE-ZAPIER-LOGO</title>
	<style>
		.s0 { fill: #fbfbfb } 
		.s1 { fill: #ffffff } 
	</style>
	<path id="makezapier" class="s0" aria-label="makezapier"  d="m6.5 23.8c0 1.3 1.1 2.4 2.5 2.4 1.3 0 2.4-1.1 2.4-2.4v-5.3c0-2.6 1.3-3.1 2.3-3.1 0.8 0 2 0.4 2 2.5v5.9c0 1.3 1.1 2.4 2.5 2.4 1.3 0 2.4-1.1 2.4-2.4v-5.3c0-2.6 1.3-3.1 2.3-3.1 0.8 0 2.1 0.4 2.1 2.5v5.9c0 1.3 1 2.4 2.4 2.4 1.3 0 2.4-1.1 2.4-2.4v-6.6c0-3.2-1.4-5.4-5-5.4-2.4 0-3.8 1.1-4.6 2.7-0.8-2-2.4-2.7-4.6-2.7-2.4 0-3.9 1.2-4.6 2.6v-0.4c0-1.2-1-2.2-2.2-2.2-1.2 0-2.3 1-2.3 2.2zm25.7-1.7c0 2.7 2.2 4.2 4.9 4.2 1.8 0 3.3-0.5 4.4-2 0.2 1.1 1.1 1.9 2.2 1.9 1.3 0 2.3-1 2.3-2.3v-6.4c0-4.3-2.5-5.8-6.6-5.8-2.5 0-6.3 0.7-6.3 3.1 0 1.2 1 1.9 2.1 1.9 1.6 0 1.9-1.6 4.1-1.6 1.9 0 2 1 2 2.5h-1.7c-3.3 0-7.4 0.4-7.4 4.5zm4.8-0.3c0-1.5 1.6-1.7 2.8-1.7h1.5v0.2c0 1.7-0.9 3-2.7 3-0.9 0-1.6-0.5-1.6-1.5zm12.3 2.1c0 1.3 1 2.3 2.3 2.3 1.4 0 2.5-1 2.5-2.3v-2.1l1.2-1.3 2.9 4.6c0.4 0.7 1.1 1.1 1.9 1.1 1.3 0 2.3-1 2.3-2.2 0-0.4-0.2-0.9-0.4-1.2l-3.3-5.3 2.2-2.4c0.3-0.4 0.5-0.8 0.5-1.3 0-1.1-0.9-2-1.9-2-0.6 0-1.2 0.3-1.5 0.7l-3.9 4.6v-8.9c0-1.3-1.1-2.3-2.4-2.3-1.4 0-2.4 1-2.4 2.3zm14.5-4.8c0 4.5 3 7.4 7.9 7.4 2.6 0 5.3-0.9 5.3-3 0-1.1-0.9-1.9-1.9-1.9-1.6 0-1.8 1.5-3.8 1.5-1.6 0-2.7-1.1-2.9-2.7h7.7c1.6 0 2.1-0.8 2.1-2.3 0-3-2.5-6.3-7.1-6.3-4.5 0-7.3 3.1-7.3 7.3zm4.6-1.5c0.2-1.7 1.2-2.7 2.6-2.7 1.5 0 2.5 1 2.6 2.7zm11.5 6.6c0 1 0.8 1.9 1.9 1.9h9c0.9 0 1.7-0.8 1.7-1.8 0-1-0.8-1.8-1.7-1.8h-5l6.2-7.3c0.3-0.3 0.4-0.7 0.4-1.2 0-1-0.8-1.9-1.9-1.9h-8.7c-0.9 0-1.7 0.8-1.7 1.8 0 0.9 0.8 1.7 1.7 1.7h4.7l-6.2 7.3c-0.3 0.4-0.4 0.8-0.4 1.3zm14.5-2c0 2.7 2.2 4.2 4.8 4.2 1.9 0 3.3-0.5 4.4-2 0.2 1.1 1.1 1.9 2.3 1.9 1.2 0 2.2-1.1 2.2-2.3v-6.4c0-4.3-2.5-5.8-6.6-5.8-2.5 0-6.2 0.6-6.2 3.1 0 1.1 0.9 1.9 2 1.9 1.6 0 2-1.7 4.2-1.7 1.8 0 1.9 1 1.9 2.5h-1.7c-3.2 0-7.3 0.5-7.3 4.6zm4.7-0.3c0-1.5 1.6-1.7 2.8-1.7h1.6v0.2c0 1.6-1 3-2.7 3-1 0-1.7-0.5-1.7-1.5zm12.3 7.7c0 1.3 1.1 2.4 2.4 2.4 1.3 0 2.4-1.1 2.4-2.4v-4.5c0.5 0.4 1.6 1.3 3.5 1.3 3.7 0 6.4-2.9 6.4-7.6 0-3.8-1.8-7-5.7-7-2.4 0-3.6 1.1-4.6 2.4v-0.1c0-1.2-1-2.2-2.2-2.2-1.2 0-2.2 1-2.2 2.2zm4.7-10.5c0-2.8 1.1-4 2.7-4 1.3 0 2.5 1.1 2.5 4 0 2.9-1.2 4.1-2.6 4.1-1.4 0-2.6-1.1-2.6-4.1zm12.5-11c0 1.1 0.9 2 2 2h1.2c1.1 0 2-0.9 2-2 0-1.1-0.9-2-2-2h-1.2c-1.1 0-2 0.9-2 2zm0.2 15.8c0 1.3 1.1 2.4 2.4 2.4 1.3 0 2.4-1.1 2.4-2.4v-9.6c0-1.3-1.1-2.4-2.4-2.4-1.3 0-2.4 1.1-2.4 2.4zm7.4-4.8c0 4.5 3 7.3 7.9 7.3 2.6 0 5.3-0.8 5.3-2.9 0-1.1-0.8-2-1.9-2-1.6 0-1.8 1.6-3.8 1.6-1.6 0-2.7-1.1-2.9-2.8h7.7c1.6 0 2.1-0.8 2.1-2.2 0-3-2.5-6.4-7.1-6.4-4.5 0-7.3 3.2-7.3 7.4zm4.7-1.6c0.1-1.6 1.1-2.6 2.6-2.6 1.4 0 2.4 1 2.5 2.6zm12.2 6.4c0 1.3 1.1 2.4 2.4 2.4 1.3 0 2.4-1.1 2.4-2.4v-4.2c0-1.9 0.6-3.7 2.8-3.7 1.3 0 2-1.1 2-2 0-0.9-0.5-2.1-2.2-2.1-1.6 0-2.3 1.6-2.8 2.8h-0.1v-0.6c0-1.2-1-2.2-2.3-2.2-1.2 0-2.2 1-2.2 2.2z"/>
	<path id="." class="s1" aria-label="."  d="m164.7 22.8c0 2.3 1.9 4.2 4.3 4.2h1.3c2.4 0 4.3-1.9 4.3-4.2 0-2.4-1.9-4.3-4.3-4.3h-1.3c-2.4 0-4.3 1.9-4.3 4.3z"/>
</svg>