<svg version="1.2" xmlns="http://www.w3.org/2000/svg" viewBox="0 0 828 149" width="828" height="149">
	<title>MAKE-ZAPIER-LOGO</title>
	<style>
		.s0 { fill: #fbfbfb } 
		.s1 { fill: #ffffff } 
	</style>
	<path id="makezapier" class="s0" aria-label="makezapier"  d="m30.1 112.9c0 6 5 11.1 11.1 11.1 6.1 0 11.1-5.1 11.1-11.1v-24.9c0-12.1 6.2-14.5 10.7-14.5 3.8 0 9.4 1.9 9.4 11.8v27.6c0 6 5.1 11.1 11.1 11.1 6.1 0 11.1-5.1 11.1-11.1v-24.9c0-12.1 6.2-14.5 10.8-14.5 3.8 0 9.4 1.9 9.4 11.8v27.6c0 6 5 11.1 11.1 11.1 6.1 0 11.1-5.1 11.1-11.1v-30.9c0-14.9-6.3-25.3-22.9-25.3-11 0-17.7 5.3-21.4 12.9-3.4-9.2-11-12.9-21-12.9-11.1 0-17.7 5.9-21 12.3v-1.7c0-5.6-4.6-10.3-10.3-10.3-5.7 0-10.3 4.7-10.3 10.3zm118.2-8.1c0 12.7 10.2 19.8 22.2 19.8 8.6 0 15.3-2.4 20.4-9.4 0.7 5 5 8.8 10.3 8.8 5.8 0 10.2-4.9 10.2-10.6v-30c0-19.9-11.4-27.1-30.2-27.1-11.4 0-28.7 3.2-28.7 14.6 0 5.4 4.3 8.7 9.5 8.7 7.4 0 8.9-7.5 19-7.5 8.4 0 9.1 4.6 9.1 11.6h-8.1c-14.8 0-33.7 2.2-33.7 21.1zm21.7-1.3c0-7.1 7.7-8 13.1-8h7.1v1c0 7.7-4.3 13.9-12.4 13.9-4.3 0-7.8-2.4-7.8-6.9zm56.6 9.5c0 6.1 4.9 11 10.9 11 6.2 0 11.1-4.9 11.1-11v-9.4l5.8-6.5 13.2 21.9c1.8 3 5.1 5 9 5 5.7 0 10.3-4.7 10.3-10.4 0-2-0.6-3.9-1.5-5.5l-15.4-24.8 10.1-11.2c1.5-1.7 2.4-3.7 2.4-6.1 0-4.9-4-8.9-8.9-8.9-2.8 0-5.3 1-6.9 3.1l-18.1 21.2v-41.2c0-6-4.9-10.9-10.9-10.9-6.2 0-11.1 4.9-11.1 10.9zm66.9-22.3c0 20.9 13.8 34.2 36.4 34.2 11.7 0 24.4-3.9 24.4-13.6 0-5.2-4-9.2-8.9-9.2-7.4 0-8.3 7.1-17.3 7.1-7.5 0-12.5-5-13.4-12.7h35.2c7.7 0 9.8-3.9 9.8-10.5 0-14-11.5-29.6-32.6-29.6-20.7 0-33.6 14.5-33.6 34.3zm21.3-7.2c0.9-7.7 5.3-12.4 12-12.4 6.7 0 11.2 4.7 11.5 12.4zm53 30.6c0 4.9 4.1 9 9 9h41.1c4.5 0 8.2-3.7 8.2-8.3 0-4.5-3.7-8.2-8.2-8.2h-22.8l28.4-34c1.3-1.5 2-3.5 2-5.7 0-4.9-3.9-8.9-8.8-8.9h-39.8c-4.4 0-8.1 3.7-8.1 8.2 0 4.5 3.7 8.2 8.1 8.2h21.6l-28.5 34c-1.4 1.5-2.2 3.6-2.2 5.7zm66.7-9.3c0 12.8 10.1 19.8 22.2 19.8 8.6 0 15.3-2.4 20.4-9.4 0.7 5 5 8.8 10.2 8.8 5.9 0 10.3-4.9 10.3-10.6v-29.9c0-20-11.4-27.1-30.2-27.1-11.4 0-28.7 3.1-28.7 14.5 0 5.4 4.3 8.7 9.5 8.7 7.3 0 8.8-7.5 19-7.5 8.3 0 9 4.7 9 11.6h-8.1c-14.8 0-33.6 2.3-33.6 21.1zm21.7-1.3c0-7 7.6-8 13.1-8h7.1v1.1c0 7.6-4.3 13.8-12.4 13.8-4.3 0-7.8-2.4-7.8-6.9zm56.6 36c0 6.1 5 11.1 11 11.1 6.1 0 11.1-5 11.1-11.1v-21.1c2.4 2.2 7.4 6.1 16 6.1 17.2 0 29.7-13.2 29.7-35.2 0-17.8-8.4-32.6-26.2-32.6-11.2 0-16.7 5-21.2 11.2v-0.7c0-5.6-4.6-10.1-10.3-10.1-5.6 0-10.1 4.5-10.1 10.1zm21.5-49c0-12.8 5.4-18.2 12.5-18.2 6 0 11.5 4.7 11.5 18.2 0 13.5-5.6 19.1-12 19.1-6.5 0-12-4.9-12-19.1zm57.7-50.9c0 5.1 4.1 9.3 9.3 9.3h5.5c5.1 0 9.3-4.2 9.3-9.3 0-5.2-4.2-9.3-9.3-9.3h-5.5c-5.2 0-9.3 4.1-9.3 9.3zm0.9 73.3c0 6.1 5 11.1 11.1 11.1 6.1 0 11.1-5 11.1-11.1v-44.7c0-6.1-5-11.1-11.1-11.1-6.1 0-11.1 5-11.1 11.1zm34.1-22.2c0 20.9 13.9 34.1 36.4 34.1 11.7 0 24.5-3.8 24.5-13.6 0-5.1-4.1-9.2-9-9.2-7.3 0-8.3 7.2-17.3 7.2-7.5 0-12.5-5-13.3-12.8h35.2c7.6 0 9.7-3.8 9.7-10.5 0-13.9-11.4-29.5-32.5-29.5-20.8 0-33.7 14.5-33.7 34.3zm21.4-7.3c0.8-7.6 5.2-12.4 11.9-12.4 6.7 0 11.2 4.8 11.6 12.4zm56.3 29.5c0 6.1 5 11.1 11.1 11.1 6.1 0 11.1-5 11.1-11.1v-19.6c0-8.6 2.7-17.1 12.6-17.1 5.9 0 9.3-4.9 9.3-9.5 0-3.8-2.4-9.6-10.3-9.6-7.1 0-10.3 7.4-12.7 13.1h-0.5v-2.9c0-5.6-4.6-10.2-10.3-10.2-5.7 0-10.3 4.6-10.3 10.2z"/>
	<path id="." class="s1" aria-label="."  d="m757.6 105.3c0 10.9 8.8 19.7 19.7 19.7h6.3c10.9 0 19.7-8.8 19.7-19.7 0-11.1-8.8-19.9-19.7-19.9h-6.3c-10.9 0-19.7 8.8-19.7 19.9z"/>
</svg>