<svg version="1.2" xmlns="http://www.w3.org/2000/svg" viewBox="0 0 120 22" width="120" height="22">
	<title>MAKE-ZAPIER-LOGO</title>
	<style>
		.s0 { fill: #fbfbfb } 
		.s1 { fill: #ffffff } 
	</style>
	<path id="makezapier" class="s0" aria-label="makezapier"  d="m4.4 16.5c0 0.9 0.7 1.6 1.6 1.6 0.9 0 1.6-0.7 1.6-1.6v-3.7c0-1.8 0.9-2.1 1.5-2.1 0.6 0 1.4 0.3 1.4 1.7v4.1c0 0.9 0.7 1.6 1.6 1.6 0.9 0 1.6-0.7 1.6-1.6v-3.7c0-1.8 0.9-2.1 1.6-2.1 0.5 0 1.3 0.3 1.3 1.7v4.1c0 0.9 0.8 1.6 1.6 1.6 0.9 0 1.7-0.7 1.7-1.6v-4.6c0-2.2-1-3.7-3.4-3.7-1.6 0-2.5 0.8-3.1 1.9-0.5-1.3-1.6-1.9-3-1.9-1.6 0-2.6 0.9-3 1.8v-0.2c0-0.9-0.7-1.5-1.6-1.5-0.8 0-1.4 0.6-1.4 1.5zm17.1-1.2c0 1.9 1.5 2.9 3.2 2.9 1.3 0 2.2-0.4 3-1.4 0.1 0.7 0.7 1.3 1.5 1.3 0.8 0 1.4-0.7 1.4-1.6v-4.4c0-2.9-1.6-4-4.3-4-1.7 0-4.2 0.5-4.2 2.2 0 0.8 0.6 1.3 1.4 1.3 1 0 1.3-1.1 2.7-1.1 1.2 0 1.3 0.6 1.3 1.7h-1.1c-2.2 0-4.9 0.3-4.9 3.1zm3.1-0.2c0-1.1 1.1-1.2 1.9-1.2h1.1v0.2c0 1.1-0.7 2-1.8 2-0.7 0-1.2-0.3-1.2-1zm8.2 1.4c0 0.9 0.7 1.6 1.6 1.6 0.9 0 1.6-0.7 1.6-1.6v-1.4l0.9-1 1.9 3.3c0.2 0.4 0.7 0.7 1.3 0.7 0.8 0 1.5-0.7 1.5-1.5 0-0.3-0.1-0.6-0.2-0.8l-2.3-3.7 1.5-1.6c0.2-0.3 0.3-0.6 0.3-0.9 0-0.8-0.5-1.4-1.3-1.4-0.3 0-0.7 0.2-1 0.5l-2.6 3.1v-6.1c0-0.9-0.7-1.6-1.6-1.6-0.9 0-1.6 0.7-1.6 1.6zm9.7-3.2c0 3 2 5 5.3 5 1.7 0 3.6-0.6 3.6-2 0-0.8-0.6-1.4-1.3-1.4-1.1 0-1.2 1.1-2.6 1.1-1 0-1.8-0.8-1.9-1.9h5.1c1.1 0 1.4-0.6 1.4-1.6 0-2-1.6-4.3-4.7-4.3-3 0-4.9 2.1-4.9 5.1zm3.1-1.1c0.2-1.1 0.8-1.9 1.8-1.9 0.9 0 1.6 0.8 1.6 1.9zm7.7 4.5c0 0.7 0.6 1.3 1.3 1.3h6c0.6 0 1.2-0.5 1.2-1.2 0-0.7-0.6-1.2-1.2-1.2h-3.3l4.1-5c0.2-0.3 0.3-0.5 0.3-0.9 0-0.7-0.6-1.3-1.3-1.3h-5.8c-0.6 0-1.1 0.6-1.1 1.2 0 0.7 0.5 1.2 1.1 1.2h3.2l-4.2 5.1c-0.2 0.2-0.3 0.5-0.3 0.8zm9.7-1.4c0 1.9 1.4 3 3.2 3 1.2 0 2.2-0.4 2.9-1.4 0.2 0.7 0.8 1.3 1.5 1.3 0.9 0 1.5-0.8 1.5-1.6v-4.4c0-3-1.6-4-4.4-4-1.6 0-4.1 0.4-4.1 2.1 0 0.8 0.6 1.3 1.4 1.3 1 0 1.2-1.1 2.7-1.1 1.2 0 1.3 0.7 1.3 1.7h-1.1c-2.2 0-4.9 0.3-4.9 3.1zm3.1-0.2c0-1 1.1-1.1 1.9-1.1h1v0.1c0 1.1-0.6 2.1-1.8 2.1-0.6 0-1.1-0.4-1.1-1.1zm8.2 5.4c0 0.9 0.7 1.6 1.6 1.6 0.9 0 1.6-0.7 1.6-1.6v-3.2c0.4 0.4 1.1 0.9 2.4 0.9 2.4 0 4.3-1.9 4.3-5.2 0-2.6-1.3-4.8-3.8-4.8-1.7 0-2.5 0.8-3.1 1.7v-0.1c0-0.8-0.7-1.5-1.5-1.5-0.8 0-1.5 0.7-1.5 1.5zm3.1-7.3c0-1.8 0.8-2.7 1.8-2.7 0.9 0 1.7 0.8 1.7 2.7 0 2-0.8 2.9-1.7 2.9-1 0-1.8-0.8-1.8-2.9zm8.4-7.5c0 0.8 0.6 1.4 1.3 1.4h0.8c0.8 0 1.4-0.6 1.4-1.4 0-0.7-0.6-1.4-1.4-1.4h-0.8c-0.7 0-1.3 0.7-1.3 1.4zm0.1 10.9c0 0.9 0.8 1.6 1.6 1.6 0.9 0 1.7-0.7 1.7-1.6v-6.6c0-0.9-0.8-1.7-1.7-1.7-0.8 0-1.6 0.8-1.6 1.7zm5-3.3c0 3.1 2 5 5.3 5 1.6 0 3.5-0.6 3.5-2 0-0.8-0.6-1.4-1.3-1.4-1.1 0-1.2 1.1-2.5 1.1-1.1 0-1.8-0.7-1.9-1.9h5.1c1.1 0 1.4-0.5 1.4-1.5 0-2.1-1.7-4.4-4.7-4.4-3.1 0-4.9 2.2-4.9 5.1zm3.1-1.1c0.1-1.1 0.7-1.8 1.7-1.8 1 0 1.6 0.7 1.7 1.8zm8.1 4.4c0 0.8 0.8 1.6 1.6 1.6 0.9 0 1.7-0.8 1.7-1.6v-2.9c0-1.3 0.4-2.6 1.8-2.6 0.8 0 1.3-0.7 1.3-1.4 0-0.5-0.3-1.4-1.5-1.4-1 0-1.5 1.1-1.8 1.9h-0.1v-0.4c0-0.8-0.6-1.5-1.5-1.5-0.8 0-1.5 0.7-1.5 1.5z"/>
	<path id="." class="s1" aria-label="."  d="m109.8 15.1c0 1.6 1.3 2.9 2.8 2.9h1c1.5 0 2.8-1.3 2.8-2.9 0-1.6-1.3-3-2.8-3h-1c-1.5 0-2.8 1.4-2.8 3z"/>
</svg>